<svg width="60" height="60" viewBox="0 0 60 60" fill="none" xmlns="http://www.w3.org/2000/svg">
<path d="M46.714 25L57.324 9.566C57.534 9.26 57.557 8.863 57.385 8.534C57.212 8.206 56.871 8 56.5 8H26.5V4C26.5 3.447 26.053 3 25.5 3H4.5V1C4.5 0.447 4.053 0 3.5 0C2.947 0 2.5 0.447 2.5 1V4V33V59C2.5 59.553 2.947 60 3.5 60C4.053 60 4.5 59.553 4.5 59V34H15.526C14.891 34.838 14.5 35.87 14.5 37C14.5 39.757 16.743 42 19.5 42H56.5C56.871 42 57.212 41.794 57.385 41.466C57.558 41.137 57.534 40.739 57.324 40.434L46.714 25ZM4.5 5H24.5V9V32H19.5H4.5V5ZM19.5 40C17.846 40 16.5 38.654 16.5 37C16.5 35.346 17.846 34 19.5 34H25.5C26.053 34 26.5 33.553 26.5 33V10H54.599L44.676 24.434C44.442 24.775 44.442 25.226 44.676 25.567L54.599 40H19.5Z" fill="white" fill-opacity="0.5"/>
</svg>
