<svg width="32" height="32" viewBox="0 0 32 32" fill="none" xmlns="http://www.w3.org/2000/svg">
<g clip-path="url(#clip0_11_52)">
<path d="M29.93 18.891C30.789 18.891 31.49 18.195 31.49 17.33V14.154C31.49 13.293 30.793 12.594 29.93 12.594H28.174C28.174 12.593 28.174 12.592 28.17 12.588C27.863 11.373 27.381 10.227 26.752 9.178L27.975 7.953C28.582 7.344 28.582 6.357 27.975 5.748L25.729 3.502C25.436 3.209 25.039 3.045 24.625 3.045C24.213 3.045 23.813 3.21 23.522 3.503L22.299 4.726C21.26 4.103 20.123 3.622 18.918 3.314C18.914 3.313 18.906 2.411 18.898 1.549C18.895 0.692 18.2 0 17.34 0H14.165C13.749 0 13.351 0.166 13.058 0.461C12.765 0.756 12.602 1.157 12.606 1.572L12.621 3.278C11.377 3.542 10.204 4.078 9.12995 4.72L7.91495 3.502C7.62295 3.209 7.22595 3.045 6.81195 3.045C6.39795 3.045 6.00095 3.21 5.70895 3.502L3.45995 5.75C2.85195 6.359 2.85095 7.346 3.45995 7.955L4.68295 9.178C4.05695 10.228 3.57495 11.373 3.26695 12.588C3.26595 12.592 3.26595 12.593 3.26395 12.594H1.56195C0.700953 12.594 0.00195312 13.292 0.00195312 14.154V17.333C0.00195312 18.194 0.699953 18.895 1.56195 18.895H3.25595C3.24095 18.833 3.22895 18.776 3.21395 18.711C3.22895 18.77 3.24095 18.829 3.25595 18.887C3.56395 20.118 4.04895 21.281 4.68495 22.342L3.46295 23.563C3.16995 23.854 3.00595 24.251 3.00595 24.667C3.00595 25.083 3.16995 25.478 3.46295 25.771L5.70995 28.019C6.00195 28.31 6.39795 28.476 6.81195 28.476C7.22495 28.476 7.62295 28.31 7.91495 28.019L9.13595 26.796C10.207 27.437 11.381 27.927 12.624 28.234L12.61 29.92C12.606 30.336 12.769 30.736 13.062 31.031C13.355 31.326 13.753 31.492 14.169 31.492H17.345C18.2 31.492 18.898 30.801 18.905 29.942C18.911 29.091 18.917 28.21 18.924 28.209C20.128 27.899 21.264 27.42 22.303 26.799L23.526 28.02C24.135 28.628 25.124 28.628 25.731 28.02L27.977 25.777C28.583 25.168 28.585 24.18 27.977 23.57L26.753 22.346C27.391 21.284 27.874 20.122 28.186 18.891C28.202 18.832 28.202 18.836 28.186 18.899H29.934L29.93 18.891ZM15.72 20.143C13.299 20.143 11.336 18.178 11.336 15.758C11.336 13.339 13.299 11.373 15.72 11.373C18.141 11.373 20.104 13.337 20.104 15.758C20.104 18.18 18.141 20.143 15.72 20.143Z" fill="white"/>
</g>
<defs>
<clipPath id="clip0_11_52">
<rect width="31.493" height="31.492" fill="white"/>
</clipPath>
</defs>
</svg>
