<svg width="194" height="70" viewBox="0 0 194 70" fill="none" xmlns="http://www.w3.org/2000/svg">
<rect x="56" y="46" width="138" height="5" rx="2" fill="white"/>
<rect x="59" y="41" width="132" height="5" rx="2" fill="white"/>
<rect x="59" y="36" width="132" height="5" rx="2" fill="white"/>
<rect x="59" y="31" width="132" height="5" rx="2" fill="white"/>
<rect x="59" y="26" width="132" height="5" rx="2" fill="white"/>
<rect x="59" y="21" width="132" height="5" rx="2" fill="white"/>
<rect x="59" y="16" width="132" height="5" rx="2" fill="white"/>
<rect x="56" y="11" width="138" height="5" rx="2" fill="white"/>
<path d="M82.802 39.792V42H77.33V19.024H79.794V39.792H82.802ZM95.5937 39.792V42H83.5937V39.792H88.3617V26H90.8257V39.792H95.5937ZM88.3617 20.336H90.7937V23.024H88.3617V20.336ZM112.97 26.352V42H96.3937V39.792H100.938C100.362 38.6613 100.074 36.8587 100.074 34.384C100.074 32.1867 100.298 30.4907 100.746 29.296C101.215 28.1013 101.983 27.2587 103.05 26.768C104.138 26.2773 105.674 26.032 107.658 26.032C109.279 26.032 110.751 26.1067 112.074 26.256L112.97 26.352ZM102.506 34.32C102.506 37.0293 102.9 38.8533 103.69 39.792H110.506V28.304C109.055 28.1973 108.031 28.144 107.434 28.144C106.09 28.144 105.066 28.3467 104.362 28.752C103.658 29.1573 103.167 29.7973 102.89 30.672C102.634 31.5467 102.506 32.7627 102.506 34.32ZM105.93 20.336H108.362V23.024H105.93V20.336ZM118.574 19.024H121.038V42H118.574V19.024ZM141.864 39.792V42H125.992V39.792H136.392V36.08C136.392 32.9227 135.774 30.7147 134.536 29.456C133.32 28.176 131.891 27.536 130.248 27.536H127.656L127.496 25.712C127.71 25.6267 128.136 25.5413 128.776 25.456C129.438 25.3707 130.067 25.328 130.664 25.328C132.99 25.328 134.931 26.1707 136.488 27.856C138.067 29.52 138.856 32.24 138.856 36.016V39.792H141.864ZM154.637 24.624C157.645 24.624 160.13 25.456 162.093 27.12C164.077 28.784 165.069 31.5147 165.069 35.312V42H142.669V39.792H146.349V37.232C146.349 36.1867 146.605 35.2267 147.117 34.352C147.65 33.456 148.354 32.752 149.229 32.24C150.125 31.7067 151.095 31.44 152.141 31.44C153.165 31.44 154.114 31.696 154.989 32.208C155.885 32.6987 156.589 33.392 157.101 34.288C157.634 35.1627 157.901 36.144 157.901 37.232V39.792H162.605V35.376C162.605 32.2187 161.805 30.0107 160.205 28.752C158.626 27.472 156.621 26.832 154.189 26.832C153.25 26.832 152.247 26.9067 151.181 27.056C150.135 27.184 148.877 27.376 147.405 27.632L147.245 25.744C150.018 24.9973 152.482 24.624 154.637 24.624ZM152.141 33.648C151.202 33.648 150.413 33.968 149.773 34.608C149.133 35.248 148.813 36.0267 148.813 36.944V39.792H155.437V36.944C155.437 36.0267 155.117 35.248 154.477 34.608C153.858 33.968 153.079 33.648 152.141 33.648ZM170.661 21.776H173.125V42H170.661V21.776ZM175.173 19.312L168.645 20.592L168.357 19.568L169.893 19.152C169.168 18.5547 168.805 17.7973 168.805 16.88C168.805 16.0907 169.083 15.4187 169.637 14.864C170.192 14.288 170.907 14 171.781 14C172.272 14 172.731 14.0853 173.157 14.256C173.584 14.4267 173.904 14.5973 174.117 14.768L173.797 15.984C173.669 15.8773 173.467 15.7707 173.189 15.664C172.933 15.5573 172.645 15.504 172.325 15.504C171.771 15.504 171.312 15.6853 170.949 16.048C170.608 16.4107 170.437 16.8373 170.437 17.328C170.437 17.9467 170.683 18.4373 171.173 18.8L174.821 17.84L175.173 19.312Z" fill="#033862"/>
<g clip-path="url(#clip0_105_9)">
<path d="M46.0076 25.0204C37.1451 19.3224 25.2986 21.8967 19.6006 30.7592C13.9026 39.6216 16.4773 51.4684 25.3398 57.1664C25.5586 57.3071 25.8495 57.2435 25.9899 57.0251C26.1304 56.8066 26.0675 56.5156 25.8486 56.3749C17.4223 50.9573 14.9744 39.6944 20.392 31.268C25.8097 22.8416 37.0723 20.3942 45.4987 25.8118C45.7175 25.9525 46.0082 25.8894 46.1488 25.6705C46.2895 25.4517 46.2264 25.1611 46.0076 25.0204Z" fill="white"/>
<path d="M28.0784 52.9065C28.01 52.8625 27.9307 52.8361 27.8469 52.8326C27.6785 52.8239 27.5191 52.9065 27.4283 53.0478L22.9683 59.9847C22.8775 60.126 22.8685 60.3053 22.9462 60.4548C23.023 60.6043 23.1741 60.7015 23.3422 60.7089L31.5578 61.0888C31.7256 61.0965 31.8848 61.0143 31.9753 60.8734C32.0662 60.7322 32.0749 60.5532 31.998 60.4042L28.2423 53.0874C28.2043 53.0126 28.1469 52.9505 28.0784 52.9065ZM24.2012 59.807L27.7781 54.2436L30.7906 60.1117L24.2012 59.807Z" fill="white"/>
<path d="M20.7133 38.4453C20.6587 38.4102 20.5959 38.3861 20.5276 38.3757C20.2706 38.338 20.0313 38.5152 19.9936 38.7723C19.28 43.615 20.88 48.5996 24.2744 52.107C24.4547 52.2928 24.7525 52.2985 24.9396 52.118C25.1264 51.9371 25.1311 51.6393 24.9506 51.4528C21.7578 48.1539 20.2523 43.465 20.9242 38.9098C20.952 38.7213 20.8637 38.542 20.7133 38.4453Z" fill="white"/>
<path d="M22.9939 32.3818C22.7754 32.2413 22.4844 32.3042 22.3437 32.5231C21.6637 33.5808 21.1107 34.7141 20.7008 35.8918C20.6152 36.1372 20.7452 36.4064 20.9902 36.4907C21.2356 36.5763 21.5039 36.4468 21.5891 36.2012C21.9751 35.0937 22.4951 34.0275 23.1352 33.0319C23.2759 32.8131 23.2123 32.5222 22.9939 32.3818Z" fill="white"/>
</g>
<defs>
<clipPath id="clip0_105_9">
<rect width="43" height="43" fill="white" transform="matrix(0.841149 0.540804 0.540804 -0.841149 0 46.1694)"/>
</clipPath>
</defs>
</svg>
