<svg width="30" height="30" viewBox="0 0 30 30" fill="none" xmlns="http://www.w3.org/2000/svg">
<path d="M28.7721 9.52312L16.2171 4.21063C15.8313 4.04832 15.417 3.96472 14.9984 3.96472C14.5798 3.96472 14.1655 4.04832 13.7796 4.21063L1.22465 9.52312C0.8853 9.66668 0.59576 9.90699 0.392199 10.2141C0.188638 10.5212 0.0800781 10.8816 0.0800781 11.25C0.0800781 11.6184 0.188638 11.9787 0.392199 12.2859C0.59576 12.593 0.8853 12.8334 1.22465 12.9769L5.62465 14.8375V20.8206C5.62127 21.3579 5.75779 21.8867 6.0208 22.3552C6.28377 22.8237 6.66421 23.2156 7.12465 23.4925C9.51396 24.8894 12.2319 25.6257 14.9996 25.6257C17.7674 25.6257 20.4853 24.8894 22.8746 23.4925C23.3351 23.2156 23.7155 22.8237 23.9785 22.3552C24.2415 21.8867 24.378 21.3579 24.3746 20.8206V14.8375L26.2496 14.0437V17.0075C25.9986 17.1162 25.7806 17.2892 25.6178 17.5091C25.455 17.7289 25.353 17.9879 25.3223 18.2597C25.2915 18.5316 25.333 18.8068 25.4426 19.0575C25.5523 19.3081 25.7261 19.5255 25.9465 19.6875C25.7504 19.8317 25.5908 20.02 25.4807 20.2371C25.3705 20.4542 25.3128 20.6941 25.3121 20.9375V22.5C25.3121 22.6657 25.378 22.8247 25.4952 22.9419C25.6124 23.0592 25.7714 23.125 25.9371 23.125H27.8121C27.9779 23.125 28.1369 23.0592 28.2541 22.9419C28.3713 22.8247 28.4371 22.6657 28.4371 22.5V20.9375C28.4365 20.6941 28.3788 20.4542 28.2686 20.2371C28.1584 20.02 27.9989 19.8317 27.8028 19.6875C28.0232 19.5255 28.197 19.3081 28.3066 19.0575C28.4163 18.8068 28.4578 18.5316 28.427 18.2597C28.3963 17.9879 28.2943 17.7289 28.1315 17.5091C27.9687 17.2892 27.7507 17.1162 27.4996 17.0075V13.515L28.7721 12.9769C29.1115 12.8334 29.401 12.593 29.6046 12.2859C29.8081 11.9787 29.9167 11.6184 29.9167 11.25C29.9167 10.8816 29.8081 10.5212 29.6046 10.2141C29.401 9.90699 29.1115 9.66668 28.7721 9.52312ZM27.1871 18.4375C27.1871 18.4993 27.1688 18.5597 27.1345 18.6111C27.1001 18.6625 27.0513 18.7026 26.9942 18.7262C26.9371 18.7499 26.8743 18.7561 26.8137 18.744C26.7531 18.7319 26.6974 18.7022 26.6536 18.6585C26.61 18.6147 26.5802 18.5591 26.5681 18.4985C26.5561 18.4379 26.5623 18.375 26.586 18.3179C26.6096 18.2608 26.6496 18.212 26.701 18.1777C26.7524 18.1433 26.8128 18.125 26.8746 18.125C26.9575 18.125 27.037 18.1579 27.0956 18.2166C27.1542 18.2751 27.1871 18.3546 27.1871 18.4375ZM27.1871 21.875H26.5621V20.9375C26.5621 20.8546 26.5951 20.7751 26.6536 20.7166C26.7123 20.6579 26.7918 20.625 26.8746 20.625C26.9575 20.625 27.037 20.6579 27.0956 20.7166C27.1542 20.7751 27.1871 20.8546 27.1871 20.9375V21.875ZM23.1246 20.8206C23.1283 21.1403 23.0486 21.4554 22.8936 21.7349C22.7385 22.0145 22.5133 22.2489 22.2403 22.415C20.0431 23.6985 17.5443 24.375 14.9996 24.375C12.455 24.375 9.95615 23.6985 7.75902 22.415C7.4859 22.2489 7.26077 22.0145 7.10571 21.7349C6.95065 21.4554 6.87102 21.1403 6.87465 20.8206V15.3662L13.7821 18.2887C14.1679 18.4512 14.5823 18.5349 15.0009 18.5349C15.4195 18.5349 15.8338 18.4512 16.2196 18.2887L23.1246 15.3662V20.8206ZM28.2853 11.8256L15.7303 17.1381C15.499 17.2353 15.2505 17.2853 14.9996 17.2853C14.7487 17.2853 14.5003 17.2353 14.269 17.1381L1.71402 11.8256C1.60091 11.7778 1.50439 11.6977 1.43654 11.5953C1.36869 11.4929 1.3325 11.3728 1.3325 11.25C1.3325 11.1272 1.36869 11.0071 1.43654 10.9047C1.50439 10.8024 1.60091 10.7222 1.71402 10.6744L14.269 5.36188C14.5003 5.26451 14.7487 5.21436 14.9996 5.21436C15.2506 5.21436 15.499 5.26451 15.7303 5.36188L28.2853 10.6744C28.3984 10.7222 28.4949 10.8024 28.5628 10.9047C28.6306 11.0071 28.6668 11.1272 28.6668 11.25C28.6668 11.3728 28.6306 11.4929 28.5628 11.5953C28.4949 11.6977 28.3984 11.7778 28.2853 11.8256Z" fill="white" fill-opacity="0.5"/>
</svg>
