<svg width="24" height="24" viewBox="0 0 24 24" fill="none" xmlns="http://www.w3.org/2000/svg">
<path d="M19.5 17C18.9916 17.0003 18.4957 17.1574 18.08 17.45L16.56 15.89C17.479 14.806 17.9834 13.4311 17.9834 12.01C17.9834 10.5889 17.479 9.21396 16.56 8.13L18.11 6.59C18.5729 6.89962 19.1259 7.04583 19.6813 7.00544C20.2367 6.96505 20.7627 6.74038 21.1759 6.36705C21.5892 5.99373 21.8659 5.49313 21.9623 4.94465C22.0586 4.39617 21.9691 3.83122 21.7079 3.3394C21.4467 2.84758 21.0288 2.45705 20.5204 2.22975C20.012 2.00245 19.4423 1.9514 18.9016 2.0847C18.3609 2.21799 17.8802 2.528 17.5357 2.96554C17.1912 3.40309 17.0027 3.94313 17 4.5C17.0029 4.99416 17.1488 5.47692 17.42 5.89L15.87 7.42C14.7875 6.50631 13.4166 6.0051 12 6.0051C10.5834 6.0051 9.21253 6.50631 8.13 7.42L6.57 5.9C6.92214 5.38406 7.07011 4.75571 6.98519 4.13685C6.90028 3.51798 6.58854 2.95271 6.11045 2.55068C5.63235 2.14865 5.02198 1.93852 4.39773 1.96104C3.77347 1.98356 3.17983 2.23714 2.73195 2.67257C2.28407 3.10801 2.01388 3.69428 1.97378 4.31765C1.93369 4.94103 2.12655 5.55707 2.51495 6.0463C2.90336 6.53553 3.45963 6.86306 4.07585 6.96537C4.69208 7.06768 5.32434 6.93747 5.85 6.6L7.42 8.13C6.50104 9.21396 5.99664 10.5889 5.99664 12.01C5.99664 13.4311 6.50104 14.806 7.42 15.89L5.93 17.46C5.51357 17.1601 5.01318 16.9991 4.5 17C4.00555 17 3.5222 17.1466 3.11108 17.4213C2.69995 17.696 2.37952 18.0865 2.1903 18.5433C2.00108 19.0001 1.95158 19.5028 2.04804 19.9877C2.1445 20.4727 2.3826 20.9181 2.73224 21.2678C3.08187 21.6174 3.52732 21.8555 4.01228 21.952C4.49723 22.0484 4.9999 21.9989 5.45671 21.8097C5.91353 21.6205 6.30397 21.3001 6.57868 20.8889C6.85338 20.4778 7 19.9945 7 19.5C6.99989 19.0362 6.86812 18.5819 6.62 18.19L8.15 16.59C8.35243 16.761 8.56625 16.918 8.79 17.06V17.06C9.74329 17.6669 10.8499 17.9893 11.98 17.9893C13.1101 17.9893 14.2167 17.6669 15.17 17.06V17.06C15.3938 16.918 15.6076 16.761 15.81 16.59L17.35 18.18C17.1111 18.5782 16.9898 19.0358 17 19.5C17 19.9945 17.1466 20.4778 17.4213 20.8889C17.696 21.3001 18.0865 21.6205 18.5433 21.8097C19.0001 21.9989 19.5028 22.0484 19.9877 21.952C20.4727 21.8555 20.9181 21.6174 21.2678 21.2678C21.6174 20.9181 21.8555 20.4727 21.952 19.9877C22.0484 19.5028 21.9989 19.0001 21.8097 18.5433C21.6205 18.0865 21.3001 17.696 20.8889 17.4213C20.4778 17.1466 19.9945 17 19.5 17ZM19.5 3C19.7471 2.99334 19.992 3.04786 20.213 3.15869C20.4339 3.26952 20.624 3.43323 20.7664 3.63527C20.9088 3.83731 20.9991 4.07141 21.0292 4.31675C21.0593 4.5621 21.0283 4.81108 20.939 5.04156C20.8497 5.27203 20.7048 5.47686 20.5172 5.63783C20.3296 5.79879 20.1051 5.9109 19.8638 5.96419C19.6224 6.01748 19.3716 6.01029 19.1337 5.94326C18.8957 5.87623 18.6781 5.75145 18.5 5.58C18.2312 5.31498 18.0738 4.95725 18.06 4.58C18.0492 4.38135 18.0781 4.18254 18.1449 3.99514C18.2117 3.80775 18.3152 3.63552 18.4492 3.48848C18.5832 3.34144 18.7451 3.22253 18.9255 3.13867C19.1059 3.0548 19.3012 3.00767 19.5 3ZM3 4.5C3 4.10218 3.15804 3.72065 3.43934 3.43934C3.72065 3.15804 4.10218 3 4.5 3C4.89783 3 5.27936 3.15804 5.56066 3.43934C5.84197 3.72065 6 4.10218 6 4.5C6.00097 4.69947 5.96161 4.89708 5.88428 5.08096C5.80695 5.26483 5.69325 5.43118 5.55 5.57V5.57C5.26921 5.84438 4.89259 5.99862 4.5 6C4.10218 6 3.72065 5.84197 3.43934 5.56066C3.15804 5.27936 3 4.89783 3 4.5ZM12 7C12.9938 7.00401 13.9639 7.30408 14.7863 7.86191C15.6088 8.41973 16.2464 9.21001 16.6177 10.1318C16.989 11.0537 17.0772 12.0653 16.871 13.0374C16.6648 14.0096 16.1736 14.8983 15.46 15.59C15.3733 14.8088 15.0201 14.0814 14.46 13.53C14.2033 13.2774 13.91 13.0651 13.59 12.9C13.8722 12.6704 14.0994 12.3807 14.2551 12.0519C14.4109 11.7232 14.4911 11.3638 14.49 11C14.4918 10.5788 14.3872 10.164 14.1859 9.794C13.9845 9.42404 13.693 9.11095 13.3383 8.8838C12.9836 8.65664 12.5772 8.52279 12.157 8.49466C11.7367 8.46654 11.3161 8.54505 10.9343 8.72292C10.5525 8.90079 10.2218 9.17224 9.97299 9.51207C9.72414 9.8519 9.56519 10.2491 9.51089 10.6668C9.45659 11.0845 9.5087 11.5091 9.66239 11.9013C9.81608 12.2935 10.0664 12.6404 10.39 12.91C9.88462 13.1722 9.45151 13.5547 9.12888 14.0238C8.80626 14.493 8.60402 15.0343 8.54 15.6C7.82295 14.9089 7.32862 14.0194 7.12038 13.0455C6.91215 12.0716 6.99949 11.0577 7.37121 10.1337C7.74293 9.20981 8.3821 8.41793 9.20678 7.85961C10.0315 7.30129 11.0041 7.00197 12 7V7ZM10.5 11C10.5 10.7033 10.588 10.4133 10.7528 10.1666C10.9176 9.91997 11.1519 9.72771 11.426 9.61418C11.7001 9.50065 12.0017 9.47095 12.2926 9.52882C12.5836 9.5867 12.8509 9.72956 13.0607 9.93934C13.2704 10.1491 13.4133 10.4164 13.4712 10.7074C13.5291 10.9983 13.4994 11.2999 13.3858 11.574C13.2723 11.8481 13.08 12.0824 12.8334 12.2472C12.5867 12.412 12.2967 12.5 12 12.5C11.6022 12.5 11.2206 12.342 10.9393 12.0607C10.658 11.7794 10.5 11.3978 10.5 11ZM4.5 21C4.10218 21 3.72065 20.842 3.43934 20.5607C3.15804 20.2794 3 19.8978 3 19.5C3 19.1022 3.15804 18.7206 3.43934 18.4393C3.72065 18.158 4.10218 18 4.5 18C4.70279 17.999 4.90355 18.0403 5.0895 18.1213C5.27545 18.2022 5.4425 18.321 5.58 18.47C5.58 18.47 5.58 18.47 5.58 18.47C5.83128 18.7416 5.96748 19.1001 5.96 19.47C5.96807 19.8662 5.81905 20.2494 5.54551 20.5361C5.27196 20.8227 4.8961 20.9895 4.5 21V21ZM9.5 16.3V16C9.5 15.337 9.76339 14.7011 10.2322 14.2322C10.7011 13.7634 11.337 13.5 12 13.5C12.663 13.5 13.2989 13.7634 13.7678 14.2322C14.2366 14.7011 14.5 15.337 14.5 16V16.3C13.7467 16.7583 12.8818 17.0007 12 17.0007C11.1182 17.0007 10.2533 16.7583 9.5 16.3ZM19.5 21C19.2103 21.003 18.926 20.9215 18.6819 20.7654C18.4378 20.6094 18.2445 20.3855 18.1256 20.1213C18.0068 19.8571 17.9676 19.5639 18.0127 19.2778C18.0579 18.9916 18.1855 18.7248 18.38 18.51V18.51V18.46C18.5237 18.3087 18.6978 18.1895 18.8908 18.1102C19.0838 18.031 19.2914 17.9934 19.5 18C19.8978 18 20.2794 18.158 20.5607 18.4393C20.842 18.7206 21 19.1022 21 19.5C21 19.8978 20.842 20.2794 20.5607 20.5607C20.2794 20.842 19.8978 21 19.5 21Z" fill="white" fill-opacity="0.5"/>
</svg>
