<svg width="100" height="100" viewBox="0 0 100 100" fill="none" xmlns="http://www.w3.org/2000/svg">
<path d="M32.1387 39.707H36.3965C36.9629 41.0449 37.7051 42.2754 38.5645 43.418L37.9199 44.5312H42.3828L43.3105 42.9199C41.2891 41.0742 39.8242 38.623 39.2188 35.8398H34.0723C33.0078 35.8398 32.1387 34.9707 32.1387 33.9062V31.9726C32.1387 30.9082 33.0078 30.0391 34.0723 30.0391H39.2188C39.8242 27.2656 41.2891 24.8144 43.3105 22.959L40.7324 18.4961C40.1953 17.5684 40.5176 16.3867 41.4355 15.8594L43.1055 14.8926C44.0332 14.3555 45.2148 14.6777 45.7422 15.5957L48.3203 20.0586C49.6094 19.6484 50.9863 19.4141 52.4121 19.4141C53.8379 19.4141 55.2051 19.6484 56.5039 20.0586L59.082 15.5957C59.6191 14.668 60.8008 14.3555 61.7188 14.8926L63.3887 15.8594C64.3164 16.3965 64.6289 17.5781 64.0918 18.4961L61.5137 22.959C63.5352 24.8047 65 27.2559 65.6055 30.0391H70.752C71.8164 30.0391 72.6855 30.9082 72.6855 31.9726V33.9062C72.6855 34.9707 71.8164 35.8398 70.752 35.8398H65.6055C65 38.6133 63.5352 41.0644 61.5137 42.9199L64.0918 47.3828C64.6289 48.3105 64.3066 49.4922 63.3887 50.0195L61.7188 50.9863C61.6602 51.0156 61.6016 51.0352 61.543 51.0644C61.875 52.041 62.0703 53.0957 62.0703 54.1894C62.0703 54.5605 62.041 54.9219 62.002 55.2832L66.9922 52.4023C68.8379 51.3379 69.4727 48.9746 68.4082 47.1289L66.2695 43.418C67.1289 42.2754 67.8711 41.0449 68.4375 39.707H72.6953C74.8242 39.707 76.5625 37.9785 76.5625 35.8496V30.0586C76.5625 27.9297 74.834 26.2012 72.6953 26.2012H68.4375C67.8711 24.8633 67.1289 23.6328 66.2695 22.4902L68.4082 18.7793C69.4727 16.9336 68.8379 14.5703 66.9922 13.5059L61.9727 10.6055C60.127 9.54101 57.7637 10.1758 56.6992 12.0215L54.5605 15.7226C53.8574 15.6348 53.1445 15.5762 52.4121 15.5762C51.6797 15.5762 50.9668 15.6348 50.2637 15.7226L48.125 12.0117C47.0605 10.166 44.6973 9.53124 42.8516 10.5957L37.832 13.4961C35.9863 14.5605 35.3516 16.9238 36.416 18.7695L38.5547 22.4805C37.6953 23.623 36.9531 24.8535 36.3867 26.1914H32.1289C30 26.1914 28.2715 27.9199 28.2715 30.0488V35.8398C28.2715 37.9785 30 39.707 32.1387 39.707ZM52.4121 25.2246C48.1445 25.2246 44.6875 28.6816 44.6875 32.9492C44.6875 37.2168 48.1445 40.6738 52.4121 40.6738C56.6797 40.6738 60.1367 37.2168 60.1367 32.9492C60.1367 28.6816 56.6797 25.2246 52.4121 25.2246V25.2246ZM52.4121 36.8164C50.2832 36.8164 48.5449 35.0879 48.5449 32.959C48.5449 30.8301 50.2734 29.1016 52.4121 29.1016C54.5508 29.1016 56.2793 30.8301 56.2793 32.959C56.2793 35.0879 54.5508 36.8164 52.4121 36.8164ZM81.377 51.2988C77.5293 54.6582 66.8945 64.8144 66.8945 64.8144L47.5781 63.8476L41.7969 59.9902H51.4551C54.3359 59.9902 58.2129 57.9883 58.2129 53.2324C58.2129 48.4766 54.2773 46.4746 51.4551 46.4746H25.1953C20.9473 46.4746 19.6973 48.2129 16.6895 50.332C12.1191 53.5547 7.03125 57.0898 7.03125 57.0898L8.96484 59.9902L23.4473 50.332H51.4453C53.0273 50.332 54.3457 51.9238 54.3457 53.2324C54.3457 54.541 53.6914 56.1328 51.4453 56.1328H38.8965C36.7969 56.1328 35.4102 59.4336 36.9629 60.957C38.5156 62.4902 45.2148 67.7148 46.6211 67.7148C48.0273 67.7148 65.4492 68.6816 66.8945 68.6816C68.3398 68.6816 81.6602 55.6055 83.3105 54.1992C85.5273 52.3047 89.1016 54.1992 89.1016 54.1992L67.8613 75.4394H27.3047C25.0977 75.4394 7.03125 86.0547 7.03125 86.0547L8.96484 89.9121L28.2715 79.2969H66.8945C69.8242 79.2969 71.7188 76.3965 71.7188 76.3965C71.7188 76.3965 92.8809 56.3281 92.9688 53.2324C93.0566 50.1269 84.834 48.291 81.377 51.2988V51.2988Z" fill="white" fill-opacity="0.5"/>
</svg>
