<svg width="100" height="100" viewBox="0 0 100 100" fill="none" xmlns="http://www.w3.org/2000/svg">
<path d="M32.5 13C32.3674 13 32.2402 13.0527 32.1465 13.1465C32.0527 13.2402 32 13.3674 32 13.5V15H30C26.6984 15 24 17.6984 24 21V79.5C24 82.5256 26.4744 85 29.5 85H75C75.2362 85.0004 75.4648 84.9172 75.6455 84.7652C75.8262 84.6131 75.9473 84.402 75.9873 84.1693C76.0273 83.9366 75.9836 83.6972 75.8641 83.4935C75.7445 83.2899 75.5567 83.1351 75.334 83.0566C74.0591 82.6059 73 81.0329 73 79.5C73 77.9671 74.0591 76.3941 75.334 75.9434C75.5404 75.8708 75.7173 75.7325 75.8376 75.5498C75.9579 75.3671 76.0149 75.1499 76 74.9316V24C76 19.0415 71.9585 15 67 15H49V13.5C49 13.3674 48.9473 13.2402 48.8535 13.1465C48.7598 13.0527 48.6326 13 48.5 13H32.5ZM33 14H48V43.6914L40.793 40.0879C40.7057 40.0244 40.6002 39.9908 40.4922 39.9922C40.3887 39.9942 40.2884 40.0284 40.2051 40.0898L33 43.6914V14ZM30 17H32V44.5C32.0001 44.5851 32.0219 44.6688 32.0633 44.7431C32.1048 44.8174 32.1645 44.8799 32.2369 44.9247C32.3092 44.9695 32.3918 44.9951 32.4768 44.999C32.5618 45.003 32.6465 44.9851 32.7227 44.9473L40 41.3086V59.5C39.9991 59.5663 40.0113 59.632 40.036 59.6935C40.0607 59.755 40.0974 59.811 40.1439 59.8582C40.1904 59.9053 40.2459 59.9428 40.307 59.9684C40.3681 59.9939 40.4337 60.0071 40.5 60.0071C40.5663 60.0071 40.6319 59.9939 40.693 59.9684C40.7541 59.9428 40.8096 59.9053 40.8561 59.8582C40.9026 59.811 40.9393 59.755 40.964 59.6935C40.9887 59.632 41.0009 59.5663 41 59.5V41.3086L48.2773 44.9473C48.3535 44.9851 48.4382 45.003 48.5232 44.999C48.6082 44.9951 48.6908 44.9695 48.7631 44.9247C48.8355 44.8799 48.8952 44.8174 48.9367 44.7431C48.9781 44.6688 48.9999 44.5851 49 44.5V17H67C70.8775 17 74 20.1225 74 24V74H29.5C28.1733 74 26.9526 74.4763 26 75.2656V21C26 18.7796 27.7796 17 30 17ZM40.4922 61.9922C40.4265 61.9932 40.3617 62.0072 40.3014 62.0332C40.2412 62.0593 40.1866 62.097 40.1409 62.1442C40.0952 62.1913 40.0592 62.247 40.0351 62.3081C40.0109 62.3691 39.999 62.4343 40 62.5V64.5C39.9991 64.5663 40.0113 64.632 40.036 64.6935C40.0607 64.755 40.0974 64.811 40.1439 64.8582C40.1904 64.9053 40.2459 64.9428 40.307 64.9684C40.3681 64.9939 40.4337 65.0071 40.5 65.0071C40.5663 65.0071 40.6319 64.9939 40.693 64.9684C40.7541 64.9428 40.8096 64.9053 40.8561 64.8582C40.9026 64.811 40.9393 64.755 40.964 64.6935C40.9887 64.632 41.0009 64.5663 41 64.5V62.5C41.001 62.433 40.9886 62.3665 40.9635 62.3044C40.9383 62.2424 40.901 62.186 40.8536 62.1386C40.8062 62.0912 40.7498 62.0539 40.6878 62.0287C40.6257 62.0036 40.5592 61.9911 40.4922 61.9922ZM40.4922 65.9922C40.4265 65.9932 40.3617 66.0072 40.3014 66.0332C40.2412 66.0593 40.1866 66.097 40.1409 66.1442C40.0952 66.1913 40.0592 66.247 40.0351 66.3081C40.0109 66.3691 39.999 66.4343 40 66.5V67.5C39.9991 67.5663 40.0113 67.632 40.036 67.6935C40.0607 67.755 40.0974 67.811 40.1439 67.8582C40.1904 67.9053 40.2459 67.9428 40.307 67.9684C40.3681 67.9939 40.4337 68.0071 40.5 68.0071C40.5663 68.0071 40.6319 67.9939 40.693 67.9684C40.7541 67.9428 40.8096 67.9053 40.8561 67.8582C40.9026 67.811 40.9393 67.755 40.964 67.6935C40.9887 67.632 41.0009 67.5663 41 67.5V66.5C41.001 66.433 40.9886 66.3665 40.9635 66.3044C40.9383 66.2424 40.901 66.186 40.8536 66.1386C40.8062 66.0912 40.7498 66.0539 40.6878 66.0287C40.6257 66.0036 40.5592 65.9911 40.4922 65.9922ZM29.5 76H72.1621C71.7291 76.598 71.4146 77.2796 71.2188 78H31.5C31.4337 77.9991 31.368 78.0113 31.3065 78.036C31.245 78.0607 31.189 78.0974 31.1418 78.1439C31.0947 78.1904 31.0572 78.2459 31.0316 78.307C31.006 78.3681 30.9929 78.4337 30.9929 78.5C30.9929 78.5663 31.006 78.6319 31.0316 78.693C31.0572 78.7541 31.0947 78.8096 31.1418 78.8561C31.189 78.9026 31.245 78.9393 31.3065 78.964C31.368 78.9887 31.4337 79.0009 31.5 79H71.043C71.028 79.1665 71 79.3313 71 79.5C71 79.6687 71.028 79.8335 71.043 80H40.5C40.4337 79.9991 40.368 80.0113 40.3065 80.036C40.245 80.0607 40.189 80.0974 40.1418 80.1439C40.0947 80.1904 40.0572 80.2459 40.0316 80.307C40.0061 80.3681 39.9929 80.4337 39.9929 80.5C39.9929 80.5663 40.0061 80.6319 40.0316 80.693C40.0572 80.7541 40.0947 80.8096 40.1418 80.8561C40.189 80.9026 40.245 80.9393 40.3065 80.964C40.368 80.9887 40.4337 81.0009 40.5 81H71.2188C71.4146 81.7204 71.7291 82.402 72.1621 83H29.5C27.5556 83 26 81.4444 26 79.5C26 77.5556 27.5556 76 29.5 76Z" fill="white" fill-opacity="0.5"/>
</svg>
