<svg width="302" height="302" viewBox="0 0 302 302" fill="none" xmlns="http://www.w3.org/2000/svg">
<g clip-path="url(#clip0_8_12)">
<path d="M42.5942 15C42.5942 6.716 35.8782 0 27.5942 0C19.3102 0 12.5942 6.716 12.5942 15V286.596C12.5942 294.88 19.3102 301.596 27.5942 301.596C35.8782 301.596 42.5942 294.88 42.5942 286.596V167.878C42.5952 167.879 42.5972 167.879 42.5982 167.88L42.5942 15Z" fill="white"/>
<path d="M241.884 82.119C239.272 78.608 239.302 73.889 241.957 70.698C256.136 53.76 270.723 39.869 284.494 28.785C296.632 19.016 280.806 11.892 277.256 10.398C205.001 -20.024 132.811 43.637 60.5981 24.255V174.524C132.919 193.919 205.241 129.983 277.561 160.8C281.091 162.295 284.314 161.927 285.867 159.587C287.42 157.256 287.034 153.252 284.872 149.329C270.543 123.431 256.213 101.49 241.884 82.119Z" fill="white"/>
</g>
<defs>
<clipPath id="clip0_8_12">
<rect width="301.596" height="301.596" fill="white"/>
</clipPath>
</defs>
</svg>
