<svg width="44" height="44" viewBox="0 0 44 44" fill="none" xmlns="http://www.w3.org/2000/svg">
<path d="M21.9999 28.5911C25.6342 28.5911 28.5908 25.6343 28.5908 22.0001C28.5908 18.3659 25.6342 15.4092 21.9999 15.4092C18.3655 15.4092 15.4089 18.3659 15.4089 22.0001C15.4089 25.6343 18.3657 28.5911 21.9999 28.5911ZM21.9999 17.8503C24.2881 17.8503 26.1497 19.7118 26.1497 22.0001C26.1497 24.2884 24.2882 26.15 21.9999 26.15C19.7116 26.15 17.85 24.2884 17.85 22.0001C17.85 19.7118 19.7119 17.8503 21.9999 17.8503Z" fill="white"/>
<path d="M0.402889 17.1199L4.13533 20.4895V23.5109L0.40303 26.8802C0.0197868 27.2263 -0.104393 27.7762 0.0933876 28.2533L2.08804 33.0689C2.28568 33.5459 2.7607 33.8467 3.2778 33.8208L8.29955 33.5643L10.4358 35.7006L10.1794 40.7222C10.153 41.238 10.4542 41.7146 10.9312 41.9121L15.747 43.9069C16.2239 44.1049 16.774 43.9804 17.12 43.5974L20.4897 39.865H23.5108L26.8803 43.5974C27.2264 43.9805 27.7764 44.1044 28.2533 43.9069L33.0689 41.9123C33.5461 41.7146 33.8471 41.238 33.8207 40.7224L33.5642 35.7008L35.7006 33.5645L40.7223 33.8209C41.2364 33.8485 41.7146 33.5462 41.9121 33.0691L43.907 28.2535C44.1047 27.7762 43.9806 27.2264 43.5974 26.8803L39.8651 23.511V20.4896L43.5971 17.12C43.9803 16.7739 44.1045 16.224 43.9067 15.7469L41.9121 10.9313C41.7145 10.454 41.2372 10.1511 40.7223 10.1794L35.7006 10.4359L33.5642 8.29958L33.8207 3.27797C33.8471 2.76219 33.546 2.28556 33.0689 2.08807L28.2533 0.0932655C27.7761 -0.104954 27.2263 0.0196724 26.8803 0.402767L23.5105 4.13521H20.4894L17.1197 0.402767C16.8832 0.141064 16.5519 0.000171661 16.2134 0.000171661C16.0563 0.000171661 15.8979 0.0306664 15.7467 0.0931244L10.9311 2.08792C10.4539 2.28556 10.1529 2.76219 10.1793 3.27782L10.4357 8.29943L8.2994 10.4357L3.27765 10.1793C2.76363 10.1532 2.28538 10.454 2.08789 10.9311L0.0932426 15.7467C-0.104389 16.224 0.0196457 16.7738 0.402889 17.1199ZM4.01365 12.6611L8.7168 12.9014C9.06149 12.9201 9.39796 12.7894 9.64207 12.5455L12.5456 9.64196C12.7898 9.3977 12.919 9.06167 12.9015 8.71669L12.6614 4.01353L15.8854 2.67804L19.0412 6.17371C19.2726 6.42984 19.6019 6.5763 19.9471 6.5763H24.0531C24.3984 6.5763 24.7277 6.42999 24.9591 6.17371L28.1149 2.67804L31.3389 4.01353L31.0986 8.71669C31.081 9.06167 31.2104 9.39785 31.4547 9.64196L34.3581 12.5455C34.6022 12.7896 34.9379 12.9193 35.2833 12.9014L39.9865 12.6611L41.322 15.8851L37.8265 19.041C37.5702 19.2726 37.4239 19.6016 37.4239 19.9469V24.0532C37.4239 24.3984 37.5702 24.7277 37.8265 24.9591L41.322 28.1149L39.9865 31.3389L35.2833 31.0986C34.9382 31.0804 34.6022 31.2105 34.3581 31.4546L31.4547 34.3579C31.2104 34.6022 31.081 34.9382 31.0986 35.2835L31.3389 39.9867L28.1149 41.3222L24.9591 37.8266C24.7277 37.5705 24.3984 37.424 24.0531 37.424H19.9471C19.6019 37.424 19.2726 37.5704 19.0412 37.8266L15.8854 41.3222L12.6614 39.9867L12.9015 35.2835C12.9191 34.9385 12.79 34.6025 12.5456 34.3579L9.64207 31.4546C9.39782 31.2105 9.06164 31.0787 8.7168 31.0986L4.01365 31.3389L2.67815 28.1149L6.17382 24.9591C6.4301 24.7274 6.57642 24.3984 6.57642 24.0532V19.9469C6.57642 19.6016 6.4301 19.2723 6.17382 19.041L2.67815 15.8851L4.01365 12.6611Z" fill="white"/>
<path d="M22 33.5383C28.3621 33.5383 33.5381 28.3622 33.5381 22.0003C33.5381 15.6382 28.3621 10.4622 22 10.4622C15.6379 10.4622 10.4619 15.6383 10.4619 22.0003C10.4621 28.3623 15.6381 33.5383 22 33.5383ZM22 12.9033C27.0162 12.9033 31.097 16.9841 31.097 22.0003C31.097 27.0164 27.0162 31.0972 22 31.0972C16.9838 31.0972 12.903 27.0164 12.903 22.0003C12.903 16.9841 16.9841 12.9033 22 12.9033Z" fill="white"/>
</svg>
