<svg width="297" height="297" viewBox="0 0 297 297" fill="none" xmlns="http://www.w3.org/2000/svg">
<path d="M148.51 117.216C180.827 117.216 207.118 90.925 207.118 58.608C207.118 26.291 180.827 0 148.51 0C116.193 0 89.902 26.291 89.902 58.608C89.902 90.925 116.193 117.216 148.51 117.216Z" fill="white"/>
<path d="M227.154 145.618C227.129 145.61 227.081 145.592 227.056 145.586C219.425 143.722 196.057 140.453 196.057 140.453C193.419 139.641 190.6 141.038 189.651 143.641L154.477 240.15C152.448 245.717 144.574 245.717 142.545 240.15L107.371 143.641C106.605 141.539 104.621 140.221 102.495 140.221C101.991 140.221 77.964 143.59 69.965 145.579C48.107 151.014 34.32 172.508 34.32 194.908V275.21C34.32 287.244 44.076 297 56.11 297H240.892C252.926 297 262.682 287.244 262.682 275.21V194.641C262.681 172.338 248.354 152.545 227.154 145.618V145.618Z" fill="white"/>
<path d="M161.775 138.613C160.371 137.083 158.319 136.314 156.243 136.314H140.758C138.682 136.314 136.629 137.084 135.226 138.613C133.053 140.981 132.737 144.402 134.28 147.075L142.558 159.554L138.683 192.244L146.314 212.544C147.058 214.586 149.945 214.586 150.689 212.544L158.32 192.244L154.445 159.554L162.723 147.075C164.264 144.402 163.948 140.981 161.775 138.613V138.613Z" fill="white"/>
</svg>
