<svg width="326" height="326" viewBox="0 0 326 326" fill="none" xmlns="http://www.w3.org/2000/svg">
<g clip-path="url(#clip0_18_18)">
<path d="M298.18 59.2181H228.34V28.1321C228.34 17.3801 219.592 8.63208 208.84 8.63208H116.84C106.088 8.63208 97.34 17.3801 97.34 28.1321V59.2181H27.5C12.336 59.2181 0 71.5551 0 86.7181C0 94.9921 0 282.25 0 289.548C0 304.711 12.336 317.048 27.5 317.048H298.18C313.344 317.048 325.68 304.711 325.68 289.548C325.68 282.242 325.68 94.9901 325.68 86.7181C325.68 71.5551 313.343 59.2181 298.18 59.2181ZM112.34 28.1321C112.34 25.6511 114.359 23.6321 116.84 23.6321H208.84C211.321 23.6321 213.34 25.6511 213.34 28.1321V59.2181H204.34V40.1321C204.34 35.9901 200.982 32.6321 196.84 32.6321H128.84C124.698 32.6321 121.34 35.9901 121.34 40.1321V59.2181H112.34V28.1321ZM189.34 47.6321V59.2181H136.34V47.6321H189.34ZM310.68 289.548C310.68 296.44 305.073 302.048 298.18 302.048H27.5C20.607 302.048 15 296.44 15 289.548V192.61C22.543 196.477 25.578 195.628 57.44 195.628V217.628C57.44 221.771 60.798 225.128 64.94 225.128H100.74C104.882 225.128 108.24 221.771 108.24 217.628V195.628H217.44V217.628C217.44 221.771 220.798 225.128 224.94 225.128H260.74C264.882 225.128 268.24 221.771 268.24 217.628V195.628C300.16 195.628 303.153 196.469 310.68 192.61V289.548ZM72.44 210.128V188.128V166.128H93.24V188.128V210.128H72.44ZM232.44 210.128V188.128V166.128H253.24V188.128V210.128H232.44ZM310.68 168.128C310.68 175.021 305.073 180.628 298.18 180.628H268.24V158.628C268.24 154.485 264.882 151.128 260.74 151.128H224.94C220.798 151.128 217.44 154.485 217.44 158.628V180.628H108.24V158.628C108.24 154.485 104.882 151.128 100.74 151.128H64.94C60.798 151.128 57.44 154.485 57.44 158.628V180.628H27.5C20.607 180.628 15 175.021 15 168.128V86.7181C15 79.8251 20.607 74.2181 27.5 74.2181C41.8 74.2181 284.93 74.2181 298.18 74.2181C305.073 74.2181 310.68 79.8251 310.68 86.7181V168.128Z" fill="white" fill-opacity="0.5"/>
</g>
<defs>
<clipPath id="clip0_18_18">
<rect width="325.68" height="325.68" fill="white"/>
</clipPath>
</defs>
</svg>
