<svg width="64" height="64" viewBox="0 0 64 64" fill="none" xmlns="http://www.w3.org/2000/svg">
<path d="M32.313 4C38.603 4 43.769 5.903 46.858 9.357C49.359 12.152 50.376 15.825 49.879 20.275C49.471 23.937 47.007 26.338 44.518 28.481C43.575 29.294 42.553 29.996 41.473 30.737C39.455 32.121 37.369 33.552 35.723 35.799C34.349 37.677 33.912 40.112 33.708 42.879H27.342C27.57 39.092 28.097 36.393 29.548 34.367C30.585 32.92 32.259 31.66 34.032 30.326C35.532 29.197 37.083 28.03 38.344 26.656C41.824 22.871 42.998 19.286 41.739 16.287C40.468 13.261 37.05 11.525 32.362 11.525C31.68 11.525 30.975 11.562 30.269 11.638C25.832 12.108 22.775 14.982 21.953 19.295H14.157C15.211 9.663 20.533 4.673 30.374 4.061C31.023 4.021 31.676 4 32.313 4V4ZM32.313 2C31.631 2 30.944 2.021 30.249 2.065C18.612 2.789 12.531 9.379 12 21.296H23.739C23.886 17.168 26.19 14.082 30.48 13.627C31.1051 13.5602 31.7333 13.5261 32.362 13.525C35.833 13.525 38.868 14.617 39.896 17.061C41.203 20.171 38.269 23.785 36.874 25.302C34.292 28.115 30.098 30.167 27.924 33.202C25.793 36.176 25.414 40.089 25.25 44.878H35.596C35.741 41.816 35.945 38.883 37.338 36.98C39.604 33.888 42.988 32.439 45.824 29.997C48.533 27.663 51.383 24.85 51.866 20.496C53.238 8.194 43.832 2 32.313 2V2Z" fill="white" fill-opacity="0.5"/>
<path d="M30.5154 51.134C33.0154 51.134 35.0484 53.123 35.0484 55.568C35.0484 58.013 33.0154 60 30.5154 60C28.0164 60 25.9834 58.012 25.9834 55.567C25.9834 53.122 28.0164 51.134 30.5154 51.134ZM30.5154 49.134C26.9074 49.134 23.9834 52.015 23.9834 55.568C23.9834 59.121 26.9074 62 30.5154 62C34.1244 62 37.0484 59.12 37.0484 55.567C37.0484 52.014 34.1244 49.134 30.5154 49.134Z" fill="white" fill-opacity="0.5"/>
</svg>
